<?xml version="1.0" standalone="no"?><!DOCTYPE svg PUBLIC "-//W3C//DTD SVG 1.1//EN" "http://www.w3.org/Graphics/SVG/1.1/DTD/svg11.dtd"><svg t="1516768398048" style="" viewBox="0 0 1024 1024" version="1.1" xmlns="http://www.w3.org/2000/svg" p-id="8845" xmlns:xlink="http://www.w3.org/1999/xlink" width="18" height="18"><defs><style type="text/css"></style></defs><path d="M511.706311 796.752346 319.824119 860.713077 319.824119 737.425146 255.863389 703.627389 255.863389 959.469288 575.667042 827.662333 575.667042 767.588119Z" p-id="8846" fill="#2c2c2c"></path><path d="M511.706311 64.021106c-247.27171 0-447.724091 171.817204-447.724091 383.76336 0 153.018046 104.485703 285.11255 255.636215 346.741165l0-69.827345c-114.591875-55.319933-191.675484-158.614507-191.675484-276.914844 0-176.62265 171.817204-319.80263 383.76336-319.80263s383.76336 143.181003 383.76336 319.80263c0 162.608471-145.634892 296.869315-334.140173 317.15022l-133.724631 59.85011c27.240411 4.438079 55.353702 6.763031 84.10042 6.763031 247.27171 0 447.724091-171.817204 447.724091-383.76336S758.976998 64.021106 511.706311 64.021106z" p-id="8847" fill="#2c2c2c"></path><path d="M767.54821 421.847747c0 14.32424-11.612479 25.936719-25.936719 25.936719L345.760838 447.784466c-14.32424 0-25.936719-11.612479-25.936719-25.936719l0-12.08627c0-14.32424 11.612479-25.936719 25.936719-25.936719l395.84963 0c14.32424 0 25.936719 11.612479 25.936719 25.936719L767.547187 421.847747z" p-id="8848" fill="#2c2c2c"></path><path d="M639.627772 549.769208c0 14.32424-11.612479 25.936719-25.936719 25.936719L409.721569 575.705927c-14.32424 0-25.936719-11.612479-25.936719-25.936719l0-12.08627c0-14.32424 11.612479-25.936719 25.936719-25.936719l203.968461 0c14.32424 0 25.936719 11.612479 25.936719 25.936719L639.626749 549.769208z" p-id="8849" fill="#666"></path></svg>