<?xml version="1.0" standalone="no"?><!DOCTYPE svg PUBLIC "-//W3C//DTD SVG 1.1//EN" "http://www.w3.org/Graphics/SVG/1.1/DTD/svg11.dtd"><svg t="1516699610214" fill='#777' viewBox="0 0 1025 1024" version="1.1" xmlns="http://www.w3.org/2000/svg" p-id="1040" xmlns:xlink="http://www.w3.org/1999/xlink" width="20" height="20"><defs><style type="text/css"></style></defs><path d="M414.595711 0c228.94448 0 414.558927 185.590944 414.558927 414.53338 0 98.514971-34.570422 188.914119-91.968766 260.156982l274.008654 273.904421c17.220832 17.244335 17.220832 45.215413 0 62.461792-17.220832 17.254554-45.222567 17.254554-62.44442 0l-274.008654-273.960625c-71.193813 57.423891-161.642011 91.917671-260.146763 91.917671-228.970027 0-414.594694-185.585834-414.594694-414.47922C0.001018 185.590944 185.624662 0 414.595711 0zM414.595711 765.247902c193.434944 0 350.775836-157.315344 350.775836-350.714522 0-193.448229-157.340891-350.753354-350.775836-350.753354-193.468667 0-350.811602 157.305125-350.811602 350.753354C63.783088 607.932559 221.127044 765.247902 414.595711 765.247902z"></path></svg>